<?xml version="1.0" standalone="no"?><!DOCTYPE svg PUBLIC "-//W3C//DTD SVG 1.1//EN" "http://www.w3.org/Graphics/SVG/1.1/DTD/svg11.dtd"><svg class="icon" height="512" viewBox="0 0 1024 1024" version="1.1" xmlns="http://www.w3.org/2000/svg"><path d="M511.999488 0c-282.726196 0-511.999488 229.273292-511.999488 511.999488s229.273292 511.999488 511.999488 511.999488 511.999488-229.273292 511.999488-511.999488S794.725684 0 511.999488 0z m18.227188 759.192803c-5.529999 5.528975-13.312544 8.806429-21.196452 8.806429-7.782545 0-15.667478-3.27643-21.196453-8.806429-5.529999-5.631364-8.70404-13.517321-8.704041-21.402253 0-7.883909 3.174041-15.768842 8.704041-21.298842 5.528975-5.631364 13.413908-8.908817 21.196453-8.908817 7.883909 0 15.666454 3.27643 21.196452 8.908817 5.528975 5.529999 8.806429 13.414932 8.806429 21.298842 0 7.885957-3.27643 15.77089-8.806429 21.402253z m-21.196452-70.348018c-16.486585 0-29.901517-13.517321-29.901518-30.207659 0-16.588973 13.413908-30.10527 29.901518-30.10527 16.588973 0 30.002882 13.517321 30.002881 30.10527 0 16.690338-13.413908 30.207659-30.002881 30.207659z m185.957866-188.416213c-9.011206 0-16.998527-3.89076-22.528526-10.03509L544.87027 361.983032l-0.512966 214.937888s-5.734776 20.07018-30.002882 20.07018c-0.921496 0-1.94538 0-2.866876-0.102388-1.023884 0.102388-1.94538 0.102388-2.970288 0.102388-24.166741 0-29.900493-20.07018-29.900494-20.07018l0.511942-214.937888-127.589294 128.41045c-5.529999 6.143306-13.517321 10.03509-22.528526 10.03509-16.79375 0-30.311071-13.413908-30.311071-30.002882 0-8.806429 3.89076-16.79375 10.137478-22.322726l174.898893-176.127553s4.608503-4.608503 7.065825-7.168214a29.938377 29.938377 0 0 1 21.196453-8.806429c7.680156 0 15.360312 2.969264 21.196453 8.806429 2.457322 2.559711 7.065826 7.168214 7.065826 7.168214l174.898892 176.127553c6.246718 5.528975 10.137478 13.517321 10.137478 22.322726 0.002048 16.58795-13.515273 30.002882-30.309023 30.002882z" fill="#1296db" /></svg>